# xmcd
#
# Track frame offsets:
#	180
#	21445
#	36350
#	50558
#	66578
#	83271
#	97633
#	117343
#	131715
#	151252
#	167982
#	182417
#	195293
#	206625
#	218830
#
# Disc length: 3089
#
# Revision: 1
# Processed by: cddbd v1.5.1PL0 Copyright (c) Steve Scherf et al.
# Submitted via: OrangeCD 4.1
# Normalized: r0:DSETVAR1,TDELIM( - )
#
DISCID=c90c0f0f
DTITLE=Various Artist - Kick It Up
DYEAR=1900
DGENRE=
TTITLE0=Robin Lee - Black Velvet
TTITLE1=John Michael Montgomery - Kick It Up
TTITLE2=Eddir Rabbit - I Love A Rainy Night
TTITLE3=Shanley Del - How Long (Until The Heartache Goes Away)
TTITLE4=The Oak Ridge Boys - Elvira
TTITLE5=Dwight Yoakam - Heartaches By The Number
TTITLE6=Confederate Railroad - Trashy Women
TTITLE7=Nitty Gritty Dirt Band - High Horse
TTITLE8=Forrester Sisters - Sooner Or Later
TTITLE9=Michael Martin Murphey - Tonight We Ride
TTITLE10=Shanley Del - Rear View Mirrow
TTITLE11=The Wheel - I Fell In Love
TTITLE12=Highway 101 - Big Bang Boom
TTITLE13=Hank William Jr. - Born To Boogie
TTITLE14=George Fox - Lime Rickey
EXTD=
EXTT0=
EXTT1=
EXTT2=
EXTT3=
EXTT4=
EXTT5=
EXTT6=
EXTT7=
EXTT8=
EXTT9=
EXTT10=
EXTT11=
EXTT12=
EXTT13=
EXTT14=
PLAYORDER=
